<svg id="visual" viewBox="0 0 960 540" width="960" height="540" xmlns="http://www.w3.org/2000/svg" xmlns:xlink="http://www.w3.org/1999/xlink" version="1.1"><rect x="0" y="0" width="960" height="540" fill="#F5730A"></rect><path d="M0 405L87 405L175 405L262 414L349 406L436 412L524 397L611 400L698 391L785 401L873 409L960 410L960 541L873 541L785 541L698 541L611 541L524 541L436 541L349 541L262 541L175 541L87 541L0 541Z" fill="#f5730a"></path><path d="M0 418L87 410L175 403L262 416L349 422L436 413L524 416L611 410L698 424L785 420L873 420L960 410L960 541L873 541L785 541L698 541L611 541L524 541L436 541L349 541L262 541L175 541L87 541L0 541Z" fill="#ed6a10"></path><path d="M0 428L87 421L175 428L262 430L349 424L436 436L524 426L611 418L698 427L785 424L873 434L960 435L960 541L873 541L785 541L698 541L611 541L524 541L436 541L349 541L262 541L175 541L87 541L0 541Z" fill="#e56215"></path><path d="M0 431L87 445L175 439L262 431L349 436L436 431L524 439L611 443L698 429L785 441L873 438L960 431L960 541L873 541L785 541L698 541L611 541L524 541L436 541L349 541L262 541L175 541L87 541L0 541Z" fill="#dc5918"></path><path d="M0 438L87 439L175 437L262 440L349 458L436 457L524 458L611 446L698 455L785 452L873 456L960 441L960 541L873 541L785 541L698 541L611 541L524 541L436 541L349 541L262 541L175 541L87 541L0 541Z" fill="#d3511a"></path><path d="M0 464L87 469L175 461L262 456L349 461L436 466L524 453L611 456L698 467L785 467L873 450L960 457L960 541L873 541L785 541L698 541L611 541L524 541L436 541L349 541L262 541L175 541L87 541L0 541Z" fill="#cb491b"></path><path d="M0 466L87 472L175 470L262 473L349 471L436 477L524 479L611 473L698 462L785 472L873 468L960 463L960 541L873 541L785 541L698 541L611 541L524 541L436 541L349 541L262 541L175 541L87 541L0 541Z" fill="#c2411c"></path><path d="M0 485L87 478L175 476L262 486L349 482L436 483L524 484L611 478L698 476L785 478L873 484L960 488L960 541L873 541L785 541L698 541L611 541L524 541L436 541L349 541L262 541L175 541L87 541L0 541Z" fill="#b83a1d"></path><path d="M0 492L87 496L175 487L262 485L349 494L436 500L524 492L611 493L698 498L785 487L873 493L960 496L960 541L873 541L785 541L698 541L611 541L524 541L436 541L349 541L262 541L175 541L87 541L0 541Z" fill="#af321d"></path><path d="M0 507L87 503L175 501L262 498L349 511L436 503L524 498L611 498L698 507L785 498L873 497L960 500L960 541L873 541L785 541L698 541L611 541L524 541L436 541L349 541L262 541L175 541L87 541L0 541Z" fill="#a62b1d"></path><path d="M0 512L87 516L175 516L262 519L349 509L436 511L524 520L611 517L698 522L785 515L873 511L960 511L960 541L873 541L785 541L698 541L611 541L524 541L436 541L349 541L262 541L175 541L87 541L0 541Z" fill="#9d231d"></path><path d="M0 527L87 523L175 527L262 530L349 529L436 523L524 524L611 527L698 521L785 530L873 525L960 522L960 541L873 541L785 541L698 541L611 541L524 541L436 541L349 541L262 541L175 541L87 541L0 541Z" fill="#931c1c"></path></svg>