<svg id="visual" viewBox="0 0 960 540" width="960" height="540" xmlns="http://www.w3.org/2000/svg" xmlns:xlink="http://www.w3.org/1999/xlink" version="1.1"><rect x="0" y="0" width="960" height="540" fill="#931C1C"></rect><path d="M0 447L87 455L175 449L262 440L349 456L436 443L524 440L611 451L698 453L785 451L873 455L960 453L960 541L873 541L785 541L698 541L611 541L524 541L436 541L349 541L262 541L175 541L87 541L0 541Z" fill="#871400"></path><path d="M0 451L87 457L175 455L262 448L349 451L436 456L524 457L611 448L698 460L785 460L873 449L960 448L960 541L873 541L785 541L698 541L611 541L524 541L436 541L349 541L262 541L175 541L87 541L0 541Z" fill="#911e02"></path><path d="M0 457L87 463L175 460L262 469L349 466L436 461L524 460L611 460L698 466L785 468L873 466L960 458L960 541L873 541L785 541L698 541L611 541L524 541L436 541L349 541L262 541L175 541L87 541L0 541Z" fill="#9b2604"></path><path d="M0 468L87 469L175 473L262 466L349 470L436 472L524 469L611 474L698 468L785 463L873 464L960 465L960 541L873 541L785 541L698 541L611 541L524 541L436 541L349 541L262 541L175 541L87 541L0 541Z" fill="#a52f05"></path><path d="M0 473L87 485L175 484L262 476L349 474L436 480L524 472L611 473L698 483L785 483L873 474L960 480L960 541L873 541L785 541L698 541L611 541L524 541L436 541L349 541L262 541L175 541L87 541L0 541Z" fill="#af3706"></path><path d="M0 481L87 488L175 481L262 492L349 483L436 491L524 486L611 485L698 491L785 480L873 486L960 491L960 541L873 541L785 541L698 541L611 541L524 541L436 541L349 541L262 541L175 541L87 541L0 541Z" fill="#b94007"></path><path d="M0 498L87 495L175 491L262 494L349 492L436 491L524 496L611 492L698 491L785 489L873 487L960 496L960 541L873 541L785 541L698 541L611 541L524 541L436 541L349 541L262 541L175 541L87 541L0 541Z" fill="#c34807"></path><path d="M0 501L87 505L175 495L262 496L349 500L436 500L524 503L611 504L698 504L785 505L873 506L960 499L960 541L873 541L785 541L698 541L611 541L524 541L436 541L349 541L262 541L175 541L87 541L0 541Z" fill="#cd5108"></path><path d="M0 504L87 512L175 508L262 511L349 510L436 507L524 503L611 510L698 512L785 504L873 508L960 506L960 541L873 541L785 541L698 541L611 541L524 541L436 541L349 541L262 541L175 541L87 541L0 541Z" fill="#d75909"></path><path d="M0 511L87 512L175 516L262 511L349 519L436 512L524 521L611 516L698 514L785 512L873 516L960 512L960 541L873 541L785 541L698 541L611 541L524 541L436 541L349 541L262 541L175 541L87 541L0 541Z" fill="#e16209"></path><path d="M0 522L87 527L175 526L262 525L349 527L436 523L524 524L611 524L698 526L785 523L873 519L960 528L960 541L873 541L785 541L698 541L611 541L524 541L436 541L349 541L262 541L175 541L87 541L0 541Z" fill="#eb6a0a"></path><path d="M0 527L87 528L175 531L262 530L349 533L436 530L524 530L611 528L698 528L785 535L873 532L960 531L960 541L873 541L785 541L698 541L611 541L524 541L436 541L349 541L262 541L175 541L87 541L0 541Z" fill="#f5730a"></path></svg>